<?xml version="1.0" encoding="UTF-8" standalone="no"?><!DOCTYPE svg PUBLIC "-//W3C//DTD SVG 1.1//EN" "http://www.w3.org/Graphics/SVG/1.1/DTD/svg11.dtd"><!-- Generated by graphviz version 2.35.0 (20150314.2353) --><!-- Title: FlowChart Pages: 1 --><svg width="356pt" height="653pt" viewBox="0.00 0.00 356 653" xmlns="http://www.w3.org/2000/svg" xmlns:xlink="http://www.w3.org/1999/xlink"><defs><linearGradient id="g-terminator3j5g540860qkt9" x1="0%" x2="100%" y1="0%" y2="0%" spreadMethod="pad"><stop offset="0%" stop-color="#ff8787" stop-opacity="1"/><stop offset="100%" stop-color="#ffb9b9" stop-opacity="1"/></linearGradient><linearGradient id="g-decision3j5g540860qkt9" x1="0%" x2="100%" y1="0%" y2="0%" spreadMethod="pad"><stop offset="0%" stop-color="#ffd287" stop-opacity="1"/><stop offset="100%" stop-color="#ffffb9" stop-opacity="1"/></linearGradient><linearGradient id="g-process3j5g540860qkt9" x1="0%" x2="100%" y1="0%" y2="0%" spreadMethod="pad"><stop offset="0%" stop-color="#99ff99" stop-opacity="1"/><stop offset="100%" stop-color="#cbffcb" stop-opacity="1"/></linearGradient><linearGradient id="g-default3j5g540860qkt9" x1="0%" x2="100%" y1="0%" y2="0%" spreadMethod="pad"><stop offset="0%" stop-color="#99ff99" stop-opacity="1"/><stop offset="100%" stop-color="#cbffcb" stop-opacity="1"/></linearGradient><linearGradient id="g-module3j5g540860qkt9" x1="0%" x2="100%" y1="0%" y2="0%" spreadMethod="pad"><stop offset="0%" stop-color="#77c1e4" stop-opacity="1"/><stop offset="100%" stop-color="#a9f3ff" stop-opacity="1"/></linearGradient><linearGradient id="g-dataio3j5g540860qkt9" x1="0%" x2="100%" y1="0%" y2="0%" spreadMethod="pad"><stop offset="0%" stop-color="#bebebe" stop-opacity="1"/><stop offset="100%" stop-color="#f0f0f0" stop-opacity="1"/></linearGradient><linearGradient id="g-preparation3j5g540860qkt9" x1="0%" x2="100%" y1="0%" y2="0%" spreadMethod="pad"><stop offset="0%" stop-color="#bebebe" stop-opacity="1"/><stop offset="100%" stop-color="#f0f0f0" stop-opacity="1"/></linearGradient><linearGradient id="g-comment3j5g540860qkt9" x1="0%" x2="100%" y1="0%" y2="0%" spreadMethod="pad"><stop offset="0%" stop-color="#f5f588" stop-opacity="1"/><stop offset="100%" stop-color="#ffffba" stop-opacity="1"/></linearGradient><linearGradient id="g-manual3j5g540860qkt9" x1="0%" x2="100%" y1="0%" y2="0%" spreadMethod="pad"><stop offset="0%" stop-color="#9e78ff" stop-opacity="1"/><stop offset="100%" stop-color="#d0aaff" stop-opacity="1"/></linearGradient><filter id="dropshadow3j5g540860qkt9" height="150%" width="150%"><feGaussianBlur in="SourceAlpha" stdDeviation="3"/><feOffset dx="2" dy="2" result="offsetblur"/><feComponentTransfer/><feMerge><feMergeNode/><feMergeNode in="SourceGraphic"/></feMerge></filter></defs><g id="flow3j5g540860qkt9" class="graph" transform="scale(1 1) rotate(0) translate(4 644)"><title>FlowChart</title><!-- terminator_block_1 --><g id="node1" class="node"><title>terminator_block_1</title><ellipse fill="url(#g-terminator3j5g540860qkt9)" stroke="black" cx="174" cy="-619" rx="89.2052" ry="21.4286"/><text xml:space="preserve" text-anchor="start" x="118.5" y="-622" font-family="Open Sans" font-size="10.00">INSTRUCTION = python</text><text xml:space="preserve" text-anchor="start" x="138" y="-611" font-family="Open Sans" font-size="10.00">Given Message</text></g><!-- ifs_block_2 --><g id="node2" class="node"><title>ifs_block_2</title><polygon fill="url(#g-decision3j5g540860qkt9)" stroke="black" points="174,-566 91.8742,-548 174,-530 256.126,-548 174,-566"/><text xml:space="preserve" text-anchor="start" x="132.5" y="-545.5" font-family="Open Sans" font-size="10.00">Message Has File</text></g><!-- terminator_block_1&#45;&gt;ifs_block_2 --><g id="edge1" class="edge"><title>terminator_block_1->ifs_block_2</title><path fill="none" stroke="black" d="M174,-597.671C174,-590.94 174,-583.339 174,-576.178"/><polygon fill="black" stroke="black" points="177.5,-576.156 174,-566.156 170.5,-576.156 177.5,-576.156"/></g><!-- process_block_3 --><g id="node3" class="node"><title>process_block_3</title><polygon fill="url(#g-process3j5g540860qkt9)" stroke="black" points="166.25,-488 -0.25,-488 -0.25,-452 166.25,-452 166.25,-488"/><text xml:space="preserve" text-anchor="start" x="6.5" y="-467.5" font-family="Open Sans" font-size="10.00">CODE = Download File Contents</text></g><!-- ifs_block_2&#45;&gt;process_block_3 --><g id="edge2" class="edge"><title>ifs_block_2->process_block_3</title><path fill="none" stroke="black" d="M157.731,-533.413C144.963,-522.749 126.87,-507.638 111.684,-494.956"/><polygon fill="black" stroke="black" points="113.518,-491.928 103.6,-488.204 109.031,-497.301 113.518,-491.928"/><text xml:space="preserve" text-anchor="start" x="134" y="-507.5" font-family="Open Sans" font-weight="bold" font-size="10.00"> True </text><polyline fill="none" stroke="Black" points="164,-503.5 121.981,-503.5 "/></g><!-- process_block_4 --><g id="node4" class="node"><title>process_block_4</title><polygon fill="url(#g-process3j5g540860qkt9)" stroke="black" points="343,-488 189,-488 189,-452 343,-452 343,-488"/><text xml:space="preserve" text-anchor="start" x="196" y="-467.5" font-family="Open Sans" font-size="10.00">CODE = Extract Code Regions</text></g><!-- ifs_block_2&#45;&gt;process_block_4 --><g id="edge3" class="edge"><title>ifs_block_2->process_block_4</title><path fill="none" stroke="black" d="M190.448,-533.413C203.475,-522.651 221.987,-507.358 237.426,-494.605"/><polygon fill="black" stroke="black" points="239.694,-497.271 245.174,-488.204 235.235,-491.875 239.694,-497.271"/><text xml:space="preserve" text-anchor="start" x="226" y="-507.5" font-family="Open Sans" font-weight="bold" font-size="10.00"> False </text><polyline fill="none" stroke="Black" points="257,-503.5 226.943,-503.5 "/></g><!-- ifs_block_5 --><g id="node5" class="node"><title>ifs_block_5</title><polygon fill="url(#g-decision3j5g540860qkt9)" stroke="black" points="193,-420 130.844,-402 193,-384 255.156,-402 193,-420"/><text xml:space="preserve" text-anchor="start" x="163.5" y="-399.5" font-family="Open Sans" font-size="10.00">Found CODE</text></g><!-- process_block_3&#45;&gt;ifs_block_5 --><g id="edge4" class="edge"><title>process_block_3->ifs_block_5</title><path fill="none" stroke="black" d="M111.614,-451.832C128.157,-441.906 148.874,-429.476 165.265,-419.641"/><polygon fill="black" stroke="black" points="167.099,-422.623 173.873,-414.476 163.497,-416.62 167.099,-422.623"/></g><!-- process_block_4&#45;&gt;ifs_block_5 --><g id="edge5" class="edge"><title>process_block_4->ifs_block_5</title><path fill="none" stroke="black" d="M246.82,-451.659C237.087,-442.859 225.215,-432.126 215.1,-422.981"/><polygon fill="black" stroke="black" points="217.204,-420.165 207.439,-416.054 212.509,-425.357 217.204,-420.165"/></g><!-- process_block_6 --><g id="node6" class="node"><title>process_block_6</title><polygon fill="url(#g-process3j5g540860qkt9)" stroke="black" points="188,-342 92,-342 92,-306 188,-306 188,-342"/><text xml:space="preserve" text-anchor="start" x="99" y="-321.5" font-family="Open Sans" font-size="10.00">Create Temp File</text></g><!-- ifs_block_5&#45;&gt;process_block_6 --><g id="edge6" class="edge"><title>ifs_block_5->process_block_6</title><path fill="none" stroke="black" d="M183.031,-386.705C175.937,-376.532 166.212,-362.586 157.801,-350.526"/><polygon fill="black" stroke="black" points="160.557,-348.358 151.965,-342.158 154.815,-352.363 160.557,-348.358"/><text xml:space="preserve" text-anchor="start" x="170" y="-361.5" font-family="Open Sans" font-weight="bold" font-size="10.00"> True </text><polyline fill="none" stroke="Black" points="200,-357.5 162.645,-357.5 "/></g><!-- process_block_10 --><g id="node10" class="node"><title>process_block_10</title><polygon fill="url(#g-process3j5g540860qkt9)" stroke="black" points="289.25,-291 192.75,-291 192.75,-255 289.25,-255 289.25,-291"/><text xml:space="preserve" text-anchor="start" x="199.5" y="-271.5" font-family="Open Sans" font-size="10.00">REPLY = </text><text xml:space="preserve" text-anchor="start" x="240.5" y="-271.5" font-family="Open Sans" font-style="italic" font-size="10.00">Confused</text></g><!-- ifs_block_5&#45;&gt;process_block_10 --><g id="edge10" class="edge"><title>ifs_block_5->process_block_10</title><path fill="none" stroke="black" d="M198.886,-385.427C206.842,-364.377 221.148,-326.526 230.855,-300.843"/><polygon fill="black" stroke="black" points="234.19,-301.918 234.452,-291.326 227.642,-299.443 234.19,-301.918"/><text xml:space="preserve" text-anchor="start" x="209" y="-361.5" font-family="Open Sans" font-weight="bold" font-size="10.00"> False </text><polyline fill="none" stroke="Black" points="240,-357.5 209.415,-357.5 "/></g><!-- process_block_7 --><g id="node7" class="node"><title>process_block_7</title><polygon fill="url(#g-process3j5g540860qkt9)" stroke="black" points="197.25,-240 62.75,-240 62.75,-204 197.25,-204 197.25,-240"/><text xml:space="preserve" text-anchor="start" x="69.5" y="-219.5" font-family="Open Sans" font-size="10.00">Write CODE To File TEMP</text></g><!-- process_block_6&#45;&gt;process_block_7 --><g id="edge7" class="edge"><title>process_block_6->process_block_7</title><path fill="none" stroke="black" d="M138.258,-305.581C136.738,-290.382 134.507,-268.067 132.746,-250.464"/><polygon fill="black" stroke="black" points="136.2,-249.821 131.722,-240.219 129.234,-250.518 136.2,-249.821"/></g><!-- process_block_8 --><g id="node8" class="node"><title>process_block_8</title><polygon fill="url(#g-process3j5g540860qkt9)" stroke="black" points="208.25,-172 49.75,-172 49.75,-136 208.25,-136 208.25,-172"/><text xml:space="preserve" text-anchor="start" x="56.5" y="-151.5" font-family="Open Sans" font-size="10.00">REPLY = Execution Subprocess</text></g><!-- process_block_7&#45;&gt;process_block_8 --><g id="edge8" class="edge"><title>process_block_7->process_block_8</title><path fill="none" stroke="black" d="M129.737,-203.659C129.639,-197.193 129.525,-189.682 129.417,-182.525"/><polygon fill="black" stroke="black" points="132.916,-182.4 129.264,-172.454 125.916,-182.506 132.916,-182.4"/></g><!-- process_block_9 --><g id="node9" class="node"><title>process_block_9</title><polygon fill="url(#g-process3j5g540860qkt9)" stroke="black" points="198,-104 122,-104 122,-68 198,-68 198,-104"/><text xml:space="preserve" text-anchor="start" x="129" y="-83.5" font-family="Open Sans" font-size="10.00">Delete TEMP</text></g><!-- process_block_8&#45;&gt;process_block_9 --><g id="edge9" class="edge"><title>process_block_8->process_block_9</title><path fill="none" stroke="black" d="M137.145,-135.659C140.323,-128.892 144.039,-120.981 147.54,-113.528"/><polygon fill="black" stroke="black" points="150.718,-114.993 151.802,-104.454 144.383,-112.017 150.718,-114.993"/></g><!-- terminator_block_11 --><g id="node11" class="node"><title>terminator_block_11</title><ellipse fill="url(#g-terminator3j5g540860qkt9)" stroke="black" cx="214" cy="-18" rx="47.1396" ry="18"/><text xml:space="preserve" text-anchor="start" x="182" y="-15.5" font-family="Open Sans" font-size="10.00">Return REPLY</text></g><!-- process_block_9&#45;&gt;terminator_block_11 --><g id="edge11" class="edge"><title>process_block_9->terminator_block_11</title><path fill="none" stroke="black" d="M174.188,-67.6593C180.281,-60.2117 187.508,-51.3789 194.121,-43.2963"/><polygon fill="black" stroke="black" points="196.841,-45.4987 200.465,-35.5428 191.424,-41.0661 196.841,-45.4987"/></g><!-- process_block_10&#45;&gt;terminator_block_11 --><g id="edge12" class="edge"><title>process_block_10->terminator_block_11</title><path fill="none" stroke="black" d="M241.327,-254.833C241.619,-238.049 242,-211.769 242,-189 242,-189 242,-189 242,-85 242,-70.8573 236.484,-56.2669 230.348,-44.4124"/><polygon fill="black" stroke="black" points="233.328,-42.5688 225.389,-35.5527 227.22,-45.9882 233.328,-42.5688"/></g></g></svg>