<?xml version="1.0" encoding="UTF-8" standalone="no"?><!DOCTYPE svg PUBLIC "-//W3C//DTD SVG 1.1//EN" "http://www.w3.org/Graphics/SVG/1.1/DTD/svg11.dtd"><!-- Generated by graphviz version 2.35.0 (20150314.2353) --><!-- Title: FlowChart Pages: 1 --><svg width="340pt" height="331pt" viewBox="0.00 0.00 340 331" xmlns="http://www.w3.org/2000/svg" xmlns:xlink="http://www.w3.org/1999/xlink"><defs><linearGradient id="g-terminatorir2vh6cso1dcxr" x1="0%" x2="100%" y1="0%" y2="0%" spreadMethod="pad"><stop offset="0%" stop-color="#ff8787" stop-opacity="1"/><stop offset="100%" stop-color="#ffb9b9" stop-opacity="1"/></linearGradient><linearGradient id="g-decisionir2vh6cso1dcxr" x1="0%" x2="100%" y1="0%" y2="0%" spreadMethod="pad"><stop offset="0%" stop-color="#ffd287" stop-opacity="1"/><stop offset="100%" stop-color="#ffffb9" stop-opacity="1"/></linearGradient><linearGradient id="g-processir2vh6cso1dcxr" x1="0%" x2="100%" y1="0%" y2="0%" spreadMethod="pad"><stop offset="0%" stop-color="#99ff99" stop-opacity="1"/><stop offset="100%" stop-color="#cbffcb" stop-opacity="1"/></linearGradient><linearGradient id="g-defaultir2vh6cso1dcxr" x1="0%" x2="100%" y1="0%" y2="0%" spreadMethod="pad"><stop offset="0%" stop-color="#99ff99" stop-opacity="1"/><stop offset="100%" stop-color="#cbffcb" stop-opacity="1"/></linearGradient><linearGradient id="g-moduleir2vh6cso1dcxr" x1="0%" x2="100%" y1="0%" y2="0%" spreadMethod="pad"><stop offset="0%" stop-color="#77c1e4" stop-opacity="1"/><stop offset="100%" stop-color="#a9f3ff" stop-opacity="1"/></linearGradient><linearGradient id="g-dataioir2vh6cso1dcxr" x1="0%" x2="100%" y1="0%" y2="0%" spreadMethod="pad"><stop offset="0%" stop-color="#bebebe" stop-opacity="1"/><stop offset="100%" stop-color="#f0f0f0" stop-opacity="1"/></linearGradient><linearGradient id="g-preparationir2vh6cso1dcxr" x1="0%" x2="100%" y1="0%" y2="0%" spreadMethod="pad"><stop offset="0%" stop-color="#bebebe" stop-opacity="1"/><stop offset="100%" stop-color="#f0f0f0" stop-opacity="1"/></linearGradient><linearGradient id="g-commentir2vh6cso1dcxr" x1="0%" x2="100%" y1="0%" y2="0%" spreadMethod="pad"><stop offset="0%" stop-color="#f5f588" stop-opacity="1"/><stop offset="100%" stop-color="#ffffba" stop-opacity="1"/></linearGradient><linearGradient id="g-manualir2vh6cso1dcxr" x1="0%" x2="100%" y1="0%" y2="0%" spreadMethod="pad"><stop offset="0%" stop-color="#9e78ff" stop-opacity="1"/><stop offset="100%" stop-color="#d0aaff" stop-opacity="1"/></linearGradient><filter id="dropshadowir2vh6cso1dcxr" height="150%" width="150%"><feGaussianBlur in="SourceAlpha" stdDeviation="3"/><feOffset dx="2" dy="2" result="offsetblur"/><feComponentTransfer/><feMerge><feMergeNode/><feMergeNode in="SourceGraphic"/></feMerge></filter></defs><g id="flowir2vh6cso1dcxr" class="graph" transform="scale(1 1) rotate(0) translate(4 322)"><title>FlowChart</title><!-- terminator_block_1 --><g id="node1" class="node"><title>terminator_block_1</title><ellipse fill="url(#g-terminatorir2vh6cso1dcxr)" stroke="black" cx="214" cy="-300" rx="97.1942" ry="18"/><text xml:space="preserve" text-anchor="start" x="139.5" y="-297.5" font-family="Open Sans" font-size="10.00">INSTRUCTION = Word After Tag</text></g><!-- ifs_block_2 --><g id="node2" class="node"><title>ifs_block_2</title><polygon fill="url(#g-decisionir2vh6cso1dcxr)" stroke="black" points="214,-250 123.387,-232 214,-214 304.613,-232 214,-250"/><text xml:space="preserve" text-anchor="start" x="167.5" y="-229.5" font-family="Open Sans" font-size="10.00">INSTRUCTION Valid</text></g><!-- terminator_block_1&#45;&gt;ifs_block_2 --><g id="edge1" class="edge"><title>terminator_block_1->ifs_block_2</title><path fill="none" stroke="black" d="M214,-281.659C214,-275.193 214,-267.682 214,-260.525"/><polygon fill="black" stroke="black" points="217.5,-260.454 214,-250.454 210.5,-260.454 217.5,-260.454"/></g><!-- process_block_3 --><g id="node3" class="node"><title>process_block_3</title><polygon fill="url(#g-processir2vh6cso1dcxr)" stroke="black" points="166.25,-172 -0.25,-172 -0.25,-136 166.25,-136 166.25,-172"/><text xml:space="preserve" text-anchor="start" x="6.5" y="-151.5" font-family="Open Sans" font-size="10.00">Map INSTRUCTION to function F</text></g><!-- ifs_block_2&#45;&gt;process_block_3 --><g id="edge2" class="edge"><title>ifs_block_2->process_block_3</title><path fill="none" stroke="black" d="M192.074,-218.279C172.783,-207.088 144.265,-190.543 121.226,-177.177"/><polygon fill="black" stroke="black" points="122.782,-174.033 112.376,-172.043 119.269,-180.088 122.782,-174.033"/><text xml:space="preserve" text-anchor="start" x="157" y="-191.5" font-family="Open Sans" font-weight="bold" font-size="10.00"> True </text><polyline fill="none" stroke="Black" points="187,-187.5 139.303,-187.5 "/></g><!-- terminator_block_6 --><g id="node6" class="node"><title>terminator_block_6</title><ellipse fill="url(#g-terminatorir2vh6cso1dcxr)" stroke="black" cx="258" cy="-154" rx="69.1935" ry="18"/><text xml:space="preserve" text-anchor="start" x="207" y="-152.5" font-family="Open Sans" font-weight="bold" font-size="10.00">Post Confused Reply</text></g><!-- ifs_block_2&#45;&gt;terminator_block_6 --><g id="edge5" class="edge"><title>ifs_block_2->terminator_block_6</title><path fill="none" stroke="black" d="M222.904,-215.62C228.69,-205.627 236.376,-192.351 243.08,-180.772"/><polygon fill="black" stroke="black" points="246.209,-182.351 248.191,-171.944 240.151,-178.844 246.209,-182.351"/><text xml:space="preserve" text-anchor="start" x="239" y="-191.5" font-family="Open Sans" font-weight="bold" font-size="10.00"> False </text><polyline fill="none" stroke="Black" points="270,-187.5 239.224,-187.5 "/></g><!-- process_block_4 --><g id="node4" class="node"><title>process_block_4</title><polygon fill="url(#g-processir2vh6cso1dcxr)" stroke="black" points="135.25,-104 30.75,-104 30.75,-68 135.25,-68 135.25,-104"/><text xml:space="preserve" text-anchor="start" x="62" y="-89" font-family="Open Sans" font-size="10.00">Evaluate</text><text xml:space="preserve" text-anchor="start" x="37.5" y="-78" font-family="Open Sans" font-size="10.00">Reply = F(Message)</text></g><!-- process_block_3&#45;&gt;process_block_4 --><g id="edge3" class="edge"><title>process_block_3->process_block_4</title><path fill="none" stroke="black" d="M83,-135.659C83,-129.193 83,-121.682 83,-114.525"/><polygon fill="black" stroke="black" points="86.5001,-114.454 83,-104.454 79.5001,-114.454 86.5001,-114.454"/></g><!-- terminator_block_5 --><g id="node5" class="node"><title>terminator_block_5</title><ellipse fill="url(#g-terminatorir2vh6cso1dcxr)" stroke="black" cx="83" cy="-18" rx="56.2674" ry="18"/><text xml:space="preserve" text-anchor="start" x="43" y="-16.5" font-family="Open Sans" font-weight="bold" font-size="10.00">Post Valid Reply</text></g><!-- process_block_4&#45;&gt;terminator_block_5 --><g id="edge4" class="edge"><title>process_block_4->terminator_block_5</title><path fill="none" stroke="black" d="M83,-67.6593C83,-61.1928 83,-53.6819 83,-46.5246"/><polygon fill="black" stroke="black" points="86.5001,-46.454 83,-36.4541 79.5001,-46.4541 86.5001,-46.454"/></g></g></svg>