<?xml version="1.0" encoding="UTF-8" standalone="no"?><!DOCTYPE svg PUBLIC "-//W3C//DTD SVG 1.1//EN" "http://www.w3.org/Graphics/SVG/1.1/DTD/svg11.dtd"><!-- Generated by graphviz version 2.35.0 (20150314.2353) --><!-- Title: FlowChart Pages: 1 --><svg width="329pt" height="559pt" viewBox="0.00 0.00 329 559" xmlns="http://www.w3.org/2000/svg" xmlns:xlink="http://www.w3.org/1999/xlink"><defs><linearGradient id="g-terminator7vg95zyd9m5cdi" x1="0%" x2="100%" y1="0%" y2="0%" spreadMethod="pad"><stop offset="0%" stop-color="#ff8787" stop-opacity="1"/><stop offset="100%" stop-color="#ffb9b9" stop-opacity="1"/></linearGradient><linearGradient id="g-decision7vg95zyd9m5cdi" x1="0%" x2="100%" y1="0%" y2="0%" spreadMethod="pad"><stop offset="0%" stop-color="#ffd287" stop-opacity="1"/><stop offset="100%" stop-color="#ffffb9" stop-opacity="1"/></linearGradient><linearGradient id="g-process7vg95zyd9m5cdi" x1="0%" x2="100%" y1="0%" y2="0%" spreadMethod="pad"><stop offset="0%" stop-color="#99ff99" stop-opacity="1"/><stop offset="100%" stop-color="#cbffcb" stop-opacity="1"/></linearGradient><linearGradient id="g-default7vg95zyd9m5cdi" x1="0%" x2="100%" y1="0%" y2="0%" spreadMethod="pad"><stop offset="0%" stop-color="#99ff99" stop-opacity="1"/><stop offset="100%" stop-color="#cbffcb" stop-opacity="1"/></linearGradient><linearGradient id="g-module7vg95zyd9m5cdi" x1="0%" x2="100%" y1="0%" y2="0%" spreadMethod="pad"><stop offset="0%" stop-color="#77c1e4" stop-opacity="1"/><stop offset="100%" stop-color="#a9f3ff" stop-opacity="1"/></linearGradient><linearGradient id="g-dataio7vg95zyd9m5cdi" x1="0%" x2="100%" y1="0%" y2="0%" spreadMethod="pad"><stop offset="0%" stop-color="#bebebe" stop-opacity="1"/><stop offset="100%" stop-color="#f0f0f0" stop-opacity="1"/></linearGradient><linearGradient id="g-preparation7vg95zyd9m5cdi" x1="0%" x2="100%" y1="0%" y2="0%" spreadMethod="pad"><stop offset="0%" stop-color="#bebebe" stop-opacity="1"/><stop offset="100%" stop-color="#f0f0f0" stop-opacity="1"/></linearGradient><linearGradient id="g-comment7vg95zyd9m5cdi" x1="0%" x2="100%" y1="0%" y2="0%" spreadMethod="pad"><stop offset="0%" stop-color="#f5f588" stop-opacity="1"/><stop offset="100%" stop-color="#ffffba" stop-opacity="1"/></linearGradient><linearGradient id="g-manual7vg95zyd9m5cdi" x1="0%" x2="100%" y1="0%" y2="0%" spreadMethod="pad"><stop offset="0%" stop-color="#9e78ff" stop-opacity="1"/><stop offset="100%" stop-color="#d0aaff" stop-opacity="1"/></linearGradient><filter id="dropshadow7vg95zyd9m5cdi" height="150%" width="150%"><feGaussianBlur in="SourceAlpha" stdDeviation="3"/><feOffset dx="2" dy="2" result="offsetblur"/><feComponentTransfer/><feMerge><feMergeNode/><feMergeNode in="SourceGraphic"/></feMerge></filter></defs><g id="flow7vg95zyd9m5cdi" class="graph" transform="scale(1 1) rotate(0) translate(4 550)"><title>FlowChart</title><!-- terminator_block_1 --><g id="node1" class="node"><title>terminator_block_1</title><ellipse fill="url(#g-terminator7vg95zyd9m5cdi)" stroke="black" cx="260" cy="-528" rx="55.3852" ry="18"/><text xml:space="preserve" text-anchor="start" x="220.5" y="-525.5" font-family="Open Sans" font-size="10.00">Connect to Slack</text></g><!-- nop_block_2 --><g id="node2" class="node"><title>nop_block_2</title><ellipse fill="black" stroke="black" cx="260" cy="-476" rx="1.8" ry="1.8"/><text xml:space="preserve" text-anchor="start" x="255.2" y="-481.8" font-family="Open Sans" font-weight="bold" font-size="10.00"> </text></g><!-- terminator_block_1&#45;&gt;nop_block_2 --><g id="edge1" class="edge"><title>terminator_block_1->nop_block_2</title><path fill="none" stroke="black" d="M260,-509.793C260,-500.499 260,-489.609 260,-483.011"/><polyline fill="none" stroke="black" points="260,-477.816 260,-482.816 "/></g><!-- ifs_block_3 --><g id="node3" class="node"><title>ifs_block_3</title><polygon fill="url(#g-decision7vg95zyd9m5cdi)" stroke="black" points="105,-442 73.5486,-424 105,-406 136.451,-424 105,-442"/><text xml:space="preserve" text-anchor="start" x="94" y="-421.5" font-family="Open Sans" font-size="10.00">True</text></g><!-- nop_block_2&#45;&gt;ifs_block_3 --><g id="edge11" class="edge"><title>nop_block_2->ifs_block_3</title><path fill="none" stroke="black" d="M258.66,-474.568C247.917,-471.102 175.144,-447.627 133.715,-434.263"/><polygon fill="black" stroke="black" points="134.751,-430.919 124.159,-431.18 132.602,-437.581 134.751,-430.919"/></g><!-- process_block_4 --><g id="node4" class="node"><title>process_block_4</title><polygon fill="url(#g-process7vg95zyd9m5cdi)" stroke="black" points="125,-364 7,-364 7,-328 125,-328 125,-364"/><text xml:space="preserve" text-anchor="start" x="14" y="-343.5" font-family="Open Sans" font-size="10.00">Buffer New Messages</text></g><!-- ifs_block_3&#45;&gt;process_block_4 --><g id="edge2" class="edge"><title>ifs_block_3->process_block_4</title><path fill="none" stroke="black" d="M98.2067,-409.762C93.0243,-399.663 85.7209,-385.431 79.3789,-373.072"/><polygon fill="black" stroke="black" points="82.4471,-371.384 74.7675,-364.085 76.2192,-374.58 82.4471,-371.384"/><text xml:space="preserve" text-anchor="start" x="88" y="-383.5" font-family="Open Sans" font-weight="bold" font-size="10.00"> True </text><polyline fill="none" stroke="Black" points="118,-379.5 83.0274,-379.5 "/></g><!-- nop_block_5 --><g id="node5" class="node"><title>nop_block_5</title><ellipse fill="black" stroke="black" cx="57" cy="-294" rx="1.8" ry="1.8"/><text xml:space="preserve" text-anchor="start" x="52.2" y="-299.8" font-family="Open Sans" font-weight="bold" font-size="10.00"> </text></g><!-- process_block_4&#45;&gt;nop_block_5 --><g id="edge3" class="edge"><title>process_block_4->nop_block_5</title><path fill="none" stroke="black" d="M62.9027,-327.793C61.2298,-318.499 59.2696,-307.609 58.082,-301.011"/><polyline fill="none" stroke="black" points="57.1469,-295.816 58.0327,-300.737 "/></g><!-- ifs_block_6 --><g id="node6" class="node"><title>ifs_block_6</title><polygon fill="url(#g-decision7vg95zyd9m5cdi)" stroke="black" points="157,-260 92.5975,-242 157,-224 221.402,-242 157,-260"/><text xml:space="preserve" text-anchor="start" x="126" y="-239.5" font-family="Open Sans" font-size="10.00">Buffer Empty</text></g><!-- nop_block_5&#45;&gt;ifs_block_6 --><g id="edge7" class="edge"><title>nop_block_5->ifs_block_6</title><path fill="none" stroke="black" d="M58.123,-292.438C64.7644,-289.118 99.5088,-271.746 125.952,-258.524"/><polygon fill="black" stroke="black" points="127.521,-261.653 134.9,-254.05 124.39,-255.392 127.521,-261.653"/></g><!-- process_block_7 --><g id="node7" class="node"><title>process_block_7</title><polygon fill="url(#g-process7vg95zyd9m5cdi)" stroke="black" points="225,-182 89,-182 89,-146 225,-146 225,-182"/><text xml:space="preserve" text-anchor="start" x="96" y="-161.5" font-family="Open Sans" font-size="10.00">Pop Message From Buffer</text></g><!-- ifs_block_6&#45;&gt;process_block_7 --><g id="edge4" class="edge"><title>ifs_block_6->process_block_7</title><path fill="none" stroke="black" d="M157,-223.754C157,-214.523 157,-202.935 157,-192.495"/><polygon fill="black" stroke="black" points="160.5,-192.177 157,-182.177 153.5,-192.177 160.5,-192.177"/><text xml:space="preserve" text-anchor="start" x="157" y="-201.5" font-family="Open Sans" font-weight="bold" font-size="10.00"> False </text><polyline fill="none" stroke="Black" points="188,-197.5 157,-197.5 "/></g><!-- process_block_10 --><g id="node10" class="node"><title>process_block_10</title><polygon fill="url(#g-process7vg95zyd9m5cdi)" stroke="black" points="301,-182 247,-182 247,-146 301,-146 301,-182"/><text xml:space="preserve" text-anchor="start" x="261" y="-161.5" font-family="Open Sans" font-size="10.00">Sleep</text></g><!-- ifs_block_6&#45;&gt;process_block_10 --><g id="edge10" class="edge"><title>ifs_block_6->process_block_10</title><path fill="none" stroke="black" d="M175.162,-228.99C188.618,-220.112 207.419,-207.75 224,-197 228.702,-193.951 233.663,-190.754 238.559,-187.609"/><polygon fill="black" stroke="black" points="240.706,-190.391 247.235,-182.047 236.928,-184.498 240.706,-190.391"/><text xml:space="preserve" text-anchor="start" x="224" y="-201.5" font-family="Open Sans" font-weight="bold" font-size="10.00"> True </text><polyline fill="none" stroke="Black" points="254,-197.5 222.439,-197.5 "/></g><!-- ifs_block_8 --><g id="node8" class="node"><title>ifs_block_8</title><polygon fill="url(#g-decision7vg95zyd9m5cdi)" stroke="black" points="132,-114 42.8845,-96 132,-78 221.116,-96 132,-114"/><text xml:space="preserve" text-anchor="start" x="86.5" y="-93.5" font-family="Open Sans" font-size="10.00">Tagged In Message</text></g><!-- process_block_7&#45;&gt;ifs_block_8 --><g id="edge5" class="edge"><title>process_block_7->ifs_block_8</title><path fill="none" stroke="black" d="M150.432,-145.659C147.746,-138.57 144.585,-130.225 141.647,-122.467"/><polygon fill="black" stroke="black" points="144.911,-121.204 138.096,-113.093 138.365,-123.684 144.911,-121.204"/></g><!-- ifs_block_8&#45;&gt;nop_block_5 --><g id="edge9" class="edge"><title>ifs_block_8->nop_block_5</title><path fill="none" stroke="black" d="M111.779,-109.963C99.9455,-118.673 85.8333,-131.239 78,-146 53.7546,-191.686 54.6134,-256.048 56.1194,-281.754"/><polygon fill="black" stroke="black" points="52.6493,-282.283 56.896,-291.99 59.6293,-281.753 52.6493,-282.283"/><text xml:space="preserve" text-anchor="start" x="61" y="-201.5" font-family="Open Sans" font-weight="bold" font-size="10.00"> False </text><polyline fill="none" stroke="Black" points="92,-197.5 60.9028,-197.5 "/></g><!-- process_block_9 --><g id="node9" class="node"><title>process_block_9</title><polygon fill="url(#g-process7vg95zyd9m5cdi)" stroke="black" points="97.5,-36 0.5,-36 0.5,-0 97.5,-0 97.5,-36"/><text xml:space="preserve" text-anchor="start" x="7" y="-16.5" font-family="Open Sans" font-weight="bold" font-size="10.00">Process Message</text></g><!-- ifs_block_8&#45;&gt;process_block_9 --><g id="edge6" class="edge"><title>ifs_block_8->process_block_9</title><path fill="none" stroke="black" d="M116.777,-81.0604C105.197,-70.4571 88.9796,-55.6078 75.3122,-43.0931"/><polygon fill="black" stroke="black" points="77.3528,-40.216 67.6139,-36.044 72.6255,-45.3786 77.3528,-40.216"/><text xml:space="preserve" text-anchor="start" x="96" y="-55.5" font-family="Open Sans" font-weight="bold" font-size="10.00"> True </text><polyline fill="none" stroke="Black" points="126,-51.5 84.5722,-51.5 "/></g><!-- process_block_9&#45;&gt;nop_block_5 --><g id="edge8" class="edge"><title>process_block_9->nop_block_5</title><path fill="none" stroke="black" d="M33.8777,-36.0889C22.5504,-50.6827 9,-72.7836 9,-95 9,-243 9,-243 9,-243 9,-264.592 32.5824,-280.48 46.6881,-288.052"/><polygon fill="black" stroke="black" points="45.2909,-291.265 55.8135,-292.5 48.3579,-284.972 45.2909,-291.265"/></g><!-- process_block_10&#45;&gt;nop_block_2 --><g id="edge12" class="edge"><title>process_block_10->nop_block_2</title><path fill="none" stroke="black" d="M272.934,-182.197C272.072,-197.596 271,-220.797 271,-241 271,-425 271,-425 271,-425 271,-438.688 267.019,-454.001 263.847,-464.031"/><polygon fill="black" stroke="black" points="260.435,-463.19 260.473,-473.785 267.05,-465.479 260.435,-463.19"/></g></g></svg>